<?xml version="1.0" encoding="UTF-8" standalone="no"?><svg width="1120" height="30" viewBox="0 0 1120 30" fill="none" xmlns="http://www.w3.org/2000/svg">
<line y1="-1" x2="17.1371" y2="-1" transform="matrix(-4.36333e-08 -1 -1 4.37896e-08 61 30.0002)" stroke="#CED8F7" stroke-width="2"/>
<line y1="-1" x2="17.1371" y2="-1" transform="matrix(-4.36333e-08 -1 -1 4.37896e-08 90.9069 30.0001)" stroke="#CED8F7" stroke-width="2"/>
<line y1="-1" x2="17.1371" y2="-1" transform="matrix(-4.36333e-08 -1 -1 4.37896e-08 81.0726 30.0001)" stroke="#CED8F7" stroke-width="2"/>
<line y1="-1" x2="17.1371" y2="-1" transform="matrix(-4.36333e-08 -1 -1 4.37896e-08 71 30.0002)" stroke="#CED8F7" stroke-width="2"/>
<line y1="-1" x2="30" y2="-1" transform="matrix(-4.37114e-08 -1 -1 4.37114e-08 0 30.0001)" stroke="#CED8F7" stroke-width="2"/>
<line y1="-1" x2="17.1371" y2="-1" transform="matrix(-4.36333e-08 -1 -1 4.37896e-08 10 30.0002)" stroke="#CED8F7" stroke-width="2"/>
<line y1="-1" x2="17.1371" y2="-1" transform="matrix(-4.36333e-08 -1 -1 4.37896e-08 39.9069 30.0001)" stroke="#CED8F7" stroke-width="2"/>
<line y1="-1" x2="17.1371" y2="-1" transform="matrix(-4.36333e-08 -1 -1 4.37896e-08 30.0726 30.0001)" stroke="#CED8F7" stroke-width="2"/>
<line y1="-1" x2="17.1371" y2="-1" transform="matrix(-4.36333e-08 -1 -1 4.37896e-08 20 30.0002)" stroke="#CED8F7" stroke-width="2"/>
<line y1="-1" x2="30" y2="-1" transform="matrix(-4.36333e-08 -1 -1 4.37896e-08 50.741 30.0001)" stroke="#CED8F7" stroke-width="2"/>
<line y1="-1" x2="17.1371" y2="-1" transform="matrix(-4.36333e-08 -1 -1 4.37896e-08 163 30.0002)" stroke="#CED8F7" stroke-width="2"/>
<line y1="-1" x2="17.1371" y2="-1" transform="matrix(-4.36333e-08 -1 -1 4.37896e-08 192.907 30.0001)" stroke="#CED8F7" stroke-width="2"/>
<line y1="-1" x2="17.1371" y2="-1" transform="matrix(-4.36333e-08 -1 -1 4.37896e-08 183.073 30.0001)" stroke="#CED8F7" stroke-width="2"/>
<line y1="-1" x2="17.1371" y2="-1" transform="matrix(-4.36333e-08 -1 -1 4.37896e-08 173 30.0002)" stroke="#CED8F7" stroke-width="2"/>
<line y1="-1" x2="30" y2="-1" transform="matrix(-4.37114e-08 -1 -1 4.37114e-08 102 30.0001)" stroke="#CED8F7" stroke-width="2"/>
<line y1="-1" x2="17.1371" y2="-1" transform="matrix(-4.36333e-08 -1 -1 4.37896e-08 112 30.0001)" stroke="#CED8F7" stroke-width="2"/>
<line y1="-1" x2="17.1371" y2="-1" transform="matrix(-4.36333e-08 -1 -1 4.37896e-08 141.907 30.0001)" stroke="#CED8F7" stroke-width="2"/>
<line y1="-1" x2="17.1371" y2="-1" transform="matrix(-4.36333e-08 -1 -1 4.37896e-08 132.073 30.0001)" stroke="#CED8F7" stroke-width="2"/>
<line y1="-1" x2="17.1371" y2="-1" transform="matrix(-4.36333e-08 -1 -1 4.37896e-08 122 30.0001)" stroke="#CED8F7" stroke-width="2"/>
<line y1="-1" x2="30" y2="-1" transform="matrix(-4.36333e-08 -1 -1 4.37896e-08 152.741 30.0001)" stroke="#CED8F7" stroke-width="2"/>
<line y1="-1" x2="17.1371" y2="-1" transform="matrix(-4.36333e-08 -1 -1 4.37896e-08 265 30.0002)" stroke="#CED8F7" stroke-width="2"/>
<line y1="-1" x2="17.1371" y2="-1" transform="matrix(-4.36333e-08 -1 -1 4.37896e-08 294.907 30.0001)" stroke="#CED8F7" stroke-width="2"/>
<line y1="-1" x2="17.1371" y2="-1" transform="matrix(-4.36333e-08 -1 -1 4.37896e-08 285.073 30.0001)" stroke="#CED8F7" stroke-width="2"/>
<line y1="-1" x2="17.1371" y2="-1" transform="matrix(-4.36333e-08 -1 -1 4.37896e-08 275 30.0002)" stroke="#CED8F7" stroke-width="2"/>
<line y1="-1" x2="30" y2="-1" transform="matrix(-4.37114e-08 -1 -1 4.37114e-08 204 30.0001)" stroke="#CED8F7" stroke-width="2"/>
<line y1="-1" x2="17.1371" y2="-1" transform="matrix(-4.36333e-08 -1 -1 4.37896e-08 214 30.0001)" stroke="#CED8F7" stroke-width="2"/>
<line y1="-1" x2="17.1371" y2="-1" transform="matrix(-4.36333e-08 -1 -1 4.37896e-08 243.907 30.0001)" stroke="#CED8F7" stroke-width="2"/>
<line y1="-1" x2="17.1371" y2="-1" transform="matrix(-4.36333e-08 -1 -1 4.37896e-08 234.073 30.0001)" stroke="#CED8F7" stroke-width="2"/>
<line y1="-1" x2="17.1371" y2="-1" transform="matrix(-4.36333e-08 -1 -1 4.37896e-08 224 30.0001)" stroke="#CED8F7" stroke-width="2"/>
<line y1="-1" x2="30" y2="-1" transform="matrix(-4.36333e-08 -1 -1 4.37896e-08 254.741 30.0001)" stroke="#CED8F7" stroke-width="2"/>
<line y1="-1" x2="17.1371" y2="-1" transform="matrix(-4.36333e-08 -1 -1 4.37896e-08 367 30.0001)" stroke="#CED8F7" stroke-width="2"/>
<line y1="-1" x2="17.1371" y2="-1" transform="matrix(-4.36333e-08 -1 -1 4.37896e-08 396.907 30.0001)" stroke="#CED8F7" stroke-width="2"/>
<line y1="-1" x2="17.1371" y2="-1" transform="matrix(-4.36333e-08 -1 -1 4.37896e-08 387.073 30.0001)" stroke="#CED8F7" stroke-width="2"/>
<line y1="-1" x2="17.1371" y2="-1" transform="matrix(-4.36333e-08 -1 -1 4.37896e-08 377 30.0001)" stroke="#CED8F7" stroke-width="2"/>
<line y1="-1" x2="30" y2="-1" transform="matrix(-4.37114e-08 -1 -1 4.37114e-08 306 30.0001)" stroke="#CED8F7" stroke-width="2"/>
<line y1="-1" x2="17.1371" y2="-1" transform="matrix(-4.36333e-08 -1 -1 4.37896e-08 316 30.0001)" stroke="#CED8F7" stroke-width="2"/>
<line y1="-1" x2="17.1371" y2="-1" transform="matrix(-4.36333e-08 -1 -1 4.37896e-08 345.907 30.0001)" stroke="#CED8F7" stroke-width="2"/>
<line y1="-1" x2="17.1371" y2="-1" transform="matrix(-4.36333e-08 -1 -1 4.37896e-08 336.073 30.0001)" stroke="#CED8F7" stroke-width="2"/>
<line y1="-1" x2="17.1371" y2="-1" transform="matrix(-4.36333e-08 -1 -1 4.37896e-08 326 30.0001)" stroke="#CED8F7" stroke-width="2"/>
<line y1="-1" x2="30" y2="-1" transform="matrix(-4.36333e-08 -1 -1 4.37896e-08 356.741 30.0001)" stroke="#CED8F7" stroke-width="2"/>
<line y1="-1" x2="17.1371" y2="-1" transform="matrix(-4.36333e-08 -1 -1 4.37896e-08 469 30.0002)" stroke="#CED8F7" stroke-width="2"/>
<line y1="-1" x2="17.1371" y2="-1" transform="matrix(-4.36333e-08 -1 -1 4.37896e-08 498.907 30.0001)" stroke="#CED8F7" stroke-width="2"/>
<line y1="-1" x2="17.1371" y2="-1" transform="matrix(-4.36333e-08 -1 -1 4.37896e-08 489.073 30.0001)" stroke="#CED8F7" stroke-width="2"/>
<line y1="-1" x2="17.1371" y2="-1" transform="matrix(-4.36333e-08 -1 -1 4.37896e-08 479 30.0002)" stroke="#CED8F7" stroke-width="2"/>
<line y1="-1" x2="30" y2="-1" transform="matrix(-4.37114e-08 -1 -1 4.37114e-08 408 30.0001)" stroke="#CED8F7" stroke-width="2"/>
<line y1="-1" x2="17.1371" y2="-1" transform="matrix(-4.36333e-08 -1 -1 4.37896e-08 418 30.0001)" stroke="#CED8F7" stroke-width="2"/>
<line y1="-1" x2="17.1371" y2="-1" transform="matrix(-4.36333e-08 -1 -1 4.37896e-08 447.907 30.0001)" stroke="#CED8F7" stroke-width="2"/>
<line y1="-1" x2="17.1371" y2="-1" transform="matrix(-4.36333e-08 -1 -1 4.37896e-08 438.073 30.0001)" stroke="#CED8F7" stroke-width="2"/>
<line y1="-1" x2="17.1371" y2="-1" transform="matrix(-4.36333e-08 -1 -1 4.37896e-08 428 30.0001)" stroke="#CED8F7" stroke-width="2"/>
<line y1="-1" x2="30" y2="-1" transform="matrix(-4.36333e-08 -1 -1 4.37896e-08 458.741 30.0001)" stroke="#CED8F7" stroke-width="2"/>
<line y1="-1" x2="17.1371" y2="-1" transform="matrix(-4.36333e-08 -1 -1 4.37896e-08 571 30.0001)" stroke="#CED8F7" stroke-width="2"/>
<line y1="-1" x2="17.1371" y2="-1" transform="matrix(-4.36333e-08 -1 -1 4.37896e-08 600.907 30.0001)" stroke="#CED8F7" stroke-width="2"/>
<line y1="-1" x2="17.1371" y2="-1" transform="matrix(-4.36333e-08 -1 -1 4.37896e-08 591.073 30.0001)" stroke="#CED8F7" stroke-width="2"/>
<line y1="-1" x2="17.1371" y2="-1" transform="matrix(-4.36333e-08 -1 -1 4.37896e-08 581 30.0001)" stroke="#CED8F7" stroke-width="2"/>
<line y1="-1" x2="30" y2="-1" transform="matrix(-4.37114e-08 -1 -1 4.37114e-08 510 30.0001)" stroke="#CED8F7" stroke-width="2"/>
<line y1="-1" x2="17.1371" y2="-1" transform="matrix(-4.36333e-08 -1 -1 4.37896e-08 520 30.0001)" stroke="#CED8F7" stroke-width="2"/>
<line y1="-1" x2="17.1371" y2="-1" transform="matrix(-4.36333e-08 -1 -1 4.37896e-08 549.907 30.0001)" stroke="#CED8F7" stroke-width="2"/>
<line y1="-1" x2="17.1371" y2="-1" transform="matrix(-4.36333e-08 -1 -1 4.37896e-08 540.073 30.0001)" stroke="#CED8F7" stroke-width="2"/>
<line y1="-1" x2="17.1371" y2="-1" transform="matrix(-4.36333e-08 -1 -1 4.37896e-08 530 30.0001)" stroke="#CED8F7" stroke-width="2"/>
<line y1="-1" x2="30" y2="-1" transform="matrix(-4.36333e-08 -1 -1 4.37896e-08 560.741 30.0001)" stroke="#CED8F7" stroke-width="2"/>
<line y1="-1" x2="17.1371" y2="-1" transform="matrix(-4.36333e-08 -1 -1 4.37896e-08 673 30.0001)" stroke="#CED8F7" stroke-width="2"/>
<line y1="-1" x2="17.1371" y2="-1" transform="matrix(-4.36333e-08 -1 -1 4.37896e-08 702.907 30.0001)" stroke="#CED8F7" stroke-width="2"/>
<line y1="-1" x2="17.1371" y2="-1" transform="matrix(-4.36333e-08 -1 -1 4.37896e-08 693.073 30.0001)" stroke="#CED8F7" stroke-width="2"/>
<line y1="-1" x2="17.1371" y2="-1" transform="matrix(-4.36333e-08 -1 -1 4.37896e-08 683 30.0001)" stroke="#CED8F7" stroke-width="2"/>
<line y1="-1" x2="30" y2="-1" transform="matrix(-4.37114e-08 -1 -1 4.37114e-08 612 30.0001)" stroke="#CED8F7" stroke-width="2"/>
<line y1="-1" x2="17.1371" y2="-1" transform="matrix(-4.36333e-08 -1 -1 4.37896e-08 622 30.0001)" stroke="#CED8F7" stroke-width="2"/>
<line y1="-1" x2="17.1371" y2="-1" transform="matrix(-4.36333e-08 -1 -1 4.37896e-08 651.907 30.0001)" stroke="#CED8F7" stroke-width="2"/>
<line y1="-1" x2="17.1371" y2="-1" transform="matrix(-4.36333e-08 -1 -1 4.37896e-08 642.073 30.0001)" stroke="#CED8F7" stroke-width="2"/>
<line y1="-1" x2="17.1371" y2="-1" transform="matrix(-4.36333e-08 -1 -1 4.37896e-08 632 30.0001)" stroke="#CED8F7" stroke-width="2"/>
<line y1="-1" x2="30" y2="-1" transform="matrix(-4.36333e-08 -1 -1 4.37896e-08 662.741 30.0001)" stroke="#CED8F7" stroke-width="2"/>
<line y1="-1" x2="17.1371" y2="-1" transform="matrix(-4.36333e-08 -1 -1 4.37896e-08 775 30.0001)" stroke="#CED8F7" stroke-width="2"/>
<line y1="-1" x2="17.1371" y2="-1" transform="matrix(-4.36333e-08 -1 -1 4.37896e-08 804.907 30.0001)" stroke="#CED8F7" stroke-width="2"/>
<line y1="-1" x2="17.1371" y2="-1" transform="matrix(-4.36333e-08 -1 -1 4.37896e-08 795.073 30.0001)" stroke="#CED8F7" stroke-width="2"/>
<line y1="-1" x2="17.1371" y2="-1" transform="matrix(-4.36333e-08 -1 -1 4.37896e-08 785 30.0001)" stroke="#CED8F7" stroke-width="2"/>
<line y1="-1" x2="30" y2="-1" transform="matrix(-4.37114e-08 -1 -1 4.37114e-08 714 30)" stroke="#CED8F7" stroke-width="2"/>
<line y1="-1" x2="17.1371" y2="-1" transform="matrix(-4.36333e-08 -1 -1 4.37896e-08 724 30.0001)" stroke="#CED8F7" stroke-width="2"/>
<line y1="-1" x2="17.1371" y2="-1" transform="matrix(-4.36333e-08 -1 -1 4.37896e-08 753.907 30)" stroke="#CED8F7" stroke-width="2"/>
<line y1="-1" x2="17.1371" y2="-1" transform="matrix(-4.36333e-08 -1 -1 4.37896e-08 744.073 30)" stroke="#CED8F7" stroke-width="2"/>
<line y1="-1" x2="17.1371" y2="-1" transform="matrix(-4.36333e-08 -1 -1 4.37896e-08 734 30.0001)" stroke="#CED8F7" stroke-width="2"/>
<line y1="-1" x2="30" y2="-1" transform="matrix(-4.36333e-08 -1 -1 4.37896e-08 764.741 30)" stroke="#CED8F7" stroke-width="2"/>
<line y1="-1" x2="17.1371" y2="-1" transform="matrix(-4.36333e-08 -1 -1 4.37896e-08 877 30.0002)" stroke="#CED8F7" stroke-width="2"/>
<line y1="-1" x2="17.1371" y2="-1" transform="matrix(-4.36333e-08 -1 -1 4.37896e-08 906.907 30.0001)" stroke="#CED8F7" stroke-width="2"/>
<line y1="-1" x2="17.1371" y2="-1" transform="matrix(-4.36333e-08 -1 -1 4.37896e-08 897.073 30.0001)" stroke="#CED8F7" stroke-width="2"/>
<line y1="-1" x2="17.1371" y2="-1" transform="matrix(-4.36333e-08 -1 -1 4.37896e-08 887 30.0002)" stroke="#CED8F7" stroke-width="2"/>
<line y1="-1" x2="30" y2="-1" transform="matrix(-4.37114e-08 -1 -1 4.37114e-08 816 30.0001)" stroke="#CED8F7" stroke-width="2"/>
<line y1="-1" x2="17.1371" y2="-1" transform="matrix(-4.36333e-08 -1 -1 4.37896e-08 826 30.0001)" stroke="#CED8F7" stroke-width="2"/>
<line y1="-1" x2="17.1371" y2="-1" transform="matrix(-4.36333e-08 -1 -1 4.37896e-08 855.907 30.0001)" stroke="#CED8F7" stroke-width="2"/>
<line y1="-1" x2="17.1371" y2="-1" transform="matrix(-4.36333e-08 -1 -1 4.37896e-08 846.073 30.0001)" stroke="#CED8F7" stroke-width="2"/>
<line y1="-1" x2="17.1371" y2="-1" transform="matrix(-4.36333e-08 -1 -1 4.37896e-08 836 30.0001)" stroke="#CED8F7" stroke-width="2"/>
<line y1="-1" x2="30" y2="-1" transform="matrix(-4.36333e-08 -1 -1 4.37896e-08 866.741 30.0001)" stroke="#CED8F7" stroke-width="2"/>
<line y1="-1" x2="17.1371" y2="-1" transform="matrix(-4.36333e-08 -1 -1 4.37896e-08 979 30.0001)" stroke="#CED8F7" stroke-width="2"/>
<line y1="-1" x2="17.1371" y2="-1" transform="matrix(-4.36333e-08 -1 -1 4.37896e-08 1008.91 30.0001)" stroke="#CED8F7" stroke-width="2"/>
<line y1="-1" x2="17.1371" y2="-1" transform="matrix(-4.36333e-08 -1 -1 4.37896e-08 999.073 30.0001)" stroke="#CED8F7" stroke-width="2"/>
<line y1="-1" x2="17.1371" y2="-1" transform="matrix(-4.36333e-08 -1 -1 4.37896e-08 989 30.0001)" stroke="#CED8F7" stroke-width="2"/>
<line y1="-1" x2="30" y2="-1" transform="matrix(-4.37114e-08 -1 -1 4.37114e-08 918 30.0001)" stroke="#CED8F7" stroke-width="2"/>
<line y1="-1" x2="17.1371" y2="-1" transform="matrix(-4.36333e-08 -1 -1 4.37896e-08 928 30.0001)" stroke="#CED8F7" stroke-width="2"/>
<line y1="-1" x2="17.1371" y2="-1" transform="matrix(-4.36333e-08 -1 -1 4.37896e-08 957.907 30.0001)" stroke="#CED8F7" stroke-width="2"/>
<line y1="-1" x2="17.1371" y2="-1" transform="matrix(-4.36333e-08 -1 -1 4.37896e-08 948.073 30.0001)" stroke="#CED8F7" stroke-width="2"/>
<line y1="-1" x2="17.1371" y2="-1" transform="matrix(-4.36333e-08 -1 -1 4.37896e-08 938 30.0001)" stroke="#CED8F7" stroke-width="2"/>
<line y1="-1" x2="30" y2="-1" transform="matrix(-4.36333e-08 -1 -1 4.37896e-08 968.741 30.0001)" stroke="#CED8F7" stroke-width="2"/>
<line y1="-1" x2="17.1371" y2="-1" transform="matrix(-4.36333e-08 -1 -1 4.37896e-08 1081 30.0001)" stroke="#CED8F7" stroke-width="2"/>
<line y1="-1" x2="17.1371" y2="-1" transform="matrix(-4.36333e-08 -1 -1 4.37896e-08 1109.91 30.0001)" stroke="#CED8F7" stroke-width="2"/>
<line y1="-1" x2="17.1371" y2="-1" transform="matrix(-4.36333e-08 -1 -1 4.37896e-08 1101.07 30.0001)" stroke="#CED8F7" stroke-width="2"/>
<line y1="-1" x2="17.1371" y2="-1" transform="matrix(-4.36333e-08 -1 -1 4.37896e-08 1091 30.0001)" stroke="#CED8F7" stroke-width="2"/>
<line y1="-1" x2="30" y2="-1" transform="matrix(-4.37114e-08 -1 -1 4.37114e-08 1020 30.0001)" stroke="#CED8F7" stroke-width="2"/>
<line y1="-1" x2="17.1371" y2="-1" transform="matrix(-4.36333e-08 -1 -1 4.37896e-08 1030 30.0001)" stroke="#CED8F7" stroke-width="2"/>
<line y1="-1" x2="17.1371" y2="-1" transform="matrix(-4.36333e-08 -1 -1 4.37896e-08 1059.91 30.0001)" stroke="#CED8F7" stroke-width="2"/>
<line y1="-1" x2="17.1371" y2="-1" transform="matrix(-4.36333e-08 -1 -1 4.37896e-08 1050.07 30.0001)" stroke="#CED8F7" stroke-width="2"/>
<line y1="-1" x2="17.1371" y2="-1" transform="matrix(-4.36333e-08 -1 -1 4.37896e-08 1040 30.0001)" stroke="#CED8F7" stroke-width="2"/>
<line y1="-1" x2="30" y2="-1" transform="matrix(-4.36333e-08 -1 -1 4.37896e-08 1070.74 30.0001)" stroke="#CED8F7" stroke-width="2"/>
<line y1="-1" x2="30" y2="-1" transform="matrix(-4.36333e-08 -1 -1 4.37896e-08 1118 30.0002)" stroke="#CED8F7" stroke-width="2"/>
</svg>
