<?xml version="1.0" encoding="UTF-8" standalone="no"?><svg width="42" height="399" viewBox="0 0 42 399" fill="none" xmlns="http://www.w3.org/2000/svg">
<path d="M32 329.764V334H10.82L10.82 304.348H23.528L23.528 329.764H32ZM19.292 329.764V308.584H15.056L15.056 329.764H19.292ZM32 295.884V300.12H10.82L10.82 270.468H23.528V274.704L32 270.468V275.213L23.528 279.449V295.884H32ZM19.292 295.884V274.704H15.056L15.056 295.884H19.292ZM10.82 266.241L10.82 236.589H32V266.241H10.82ZM27.764 262.005L27.764 240.825H15.056L15.056 262.005H27.764ZM19.292 232.361V228.125H27.764V206.945H10.82L10.82 202.709H32V232.361H19.292ZM23.528 168.829L23.528 194.245H27.764L27.764 168.829H32V198.481H10.82L10.82 168.829H15.056L15.056 194.245H19.292L19.292 168.829H23.528ZM15.056 134.949L15.056 160.365H27.764V134.949H32L32 164.601H10.82L10.82 134.949H15.056ZM10.82 130.722L10.82 101.07H15.056V113.778H32V118.014H15.056V130.722H10.82ZM32 67.1899V96.8419H27.764L27.764 71.4259H23.528L23.528 96.8419H10.82L10.82 67.1899H15.056L15.056 92.6059H19.292L19.292 67.1899H32Z" fill="#CED8F7"/>
<path fill-rule="evenodd" clip-rule="evenodd" d="M21 32L21 28C14.3726 28 9 22.6274 9 16H5V15H9.04107C9.54923 8.84047 14.7093 4 21 4V0H22V4.04107C27.8298 4.52202 32.478 9.1702 32.9589 15H37V16H33C33 22.2907 28.1595 27.4508 22 27.9589V32H21ZM31.9552 15C31.4796 9.72286 27.2771 5.52039 22 5.04484V15H31.9552ZM22 16H32C32 21.738 27.6065 26.4499 22 26.9552V16ZM21 15V5C15.262 5 10.5501 9.3935 10.0448 15H21ZM10 16C10 22.0751 14.9249 27 21 27V16H10Z" fill="#CED8F7"/>
<path fill-rule="evenodd" clip-rule="evenodd" d="M16 399L16 395C9.37258 395 4 389.627 4 383H0V382H4.04107C4.54923 375.84 9.70934 371 16 371V367H17V371.041C22.8298 371.522 27.478 376.17 27.9589 382H32V383H28C28 389.291 23.1595 394.451 17 394.959V399H16ZM26.9552 382C26.4796 376.723 22.2771 372.52 17 372.045V382H26.9552ZM17 383H27C27 388.738 22.6065 393.45 17 393.955V383ZM16 382V372C10.262 372 5.55007 376.394 5.04484 382H16ZM5 383C5 389.075 9.92487 394 16 394V383H5Z" fill="#CED8F7"/>
</svg>
