<?xml version="1.0" encoding="UTF-8" standalone="no"?><svg width="45" height="407" viewBox="0 0 45 407" fill="none" xmlns="http://www.w3.org/2000/svg">
<g filter="url(#filter0_d_21_6)">
<path fill-rule="evenodd" clip-rule="evenodd" d="M25 32L25 28C18.3726 28 13 22.6274 13 16H9V15H13.0411C13.5492 8.84047 18.7093 4 25 4V0H26V4.04107C31.8298 4.52202 36.478 9.1702 36.9589 15H41V16H37C37 22.2907 32.1595 27.4508 26 27.9589V32H25ZM35.9552 15C35.4796 9.72286 31.2771 5.52039 26 5.04484V15H35.9552ZM26 16H36C36 21.738 31.6065 26.4499 26 26.9552V16ZM25 15V5C19.262 5 14.5501 9.3935 14.0448 15H25ZM14 16C14 22.0751 18.9249 27 25 27V16H14Z" fill="#CED8F7"/>
<path fill-rule="evenodd" clip-rule="evenodd" d="M20 399L20 395C13.3726 395 8 389.627 8 383H4V382H8.04107C8.54923 375.84 13.7093 371 20 371V367H21V371.041C26.8298 371.522 31.478 376.17 31.9589 382H36V383H32C32 389.291 27.1595 394.451 21 394.959V399H20ZM30.9552 382C30.4796 376.723 26.2771 372.52 21 372.045V382H30.9552ZM21 383H31C31 388.738 26.6065 393.45 21 393.955V383ZM20 382V372C14.262 372 9.55007 376.394 9.04484 382H20ZM9 383C9 389.075 13.9249 394 20 394V383H9Z" fill="#CED8F7"/>
</g>
<defs>
<filter id="filter0_d_21_6" x="0" y="0" width="45" height="407" filterUnits="userSpaceOnUse" color-interpolation-filters="sRGB">
<feFlood flood-opacity="0" result="BackgroundImageFix"/>
<feColorMatrix in="SourceAlpha" type="matrix" values="0 0 0 0 0 0 0 0 0 0 0 0 0 0 0 0 0 0 127 0" result="hardAlpha"/>
<feOffset dy="4"/>
<feGaussianBlur stdDeviation="2"/>
<feComposite in2="hardAlpha" operator="out"/>
<feColorMatrix type="matrix" values="0 0 0 0 0 0 0 0 0 0 0 0 0 0 0 0 0 0 0.25 0"/>
<feBlend mode="normal" in2="BackgroundImageFix" result="effect1_dropShadow_21_6"/>
<feBlend mode="normal" in="SourceGraphic" in2="effect1_dropShadow_21_6" result="shape"/>
</filter>
</defs>
</svg>
