<?xml version="1.0" encoding="UTF-8" standalone="no"?><svg width="199" height="10" viewBox="0 0 199 10" fill="none" xmlns="http://www.w3.org/2000/svg">
<path d="M4.31757 4.06881C5.87563 4.06881 7.50787 4.02643 9.06592 3.98404C9.73366 3.98404 10.3272 3.94166 10.9949 3.94166C13.8143 3.85689 16.6336 3.77213 19.4529 3.68736C22.8658 3.60259 26.2045 3.47544 29.6174 3.39068C34.4399 3.22114 39.2625 3.09399 44.085 2.92446C45.1979 2.88207 46.3108 2.88207 47.4237 2.83969C50.243 2.75492 53.0624 2.67016 55.8817 2.62777C58.701 2.54301 61.5204 2.45824 64.3397 2.41586C65.4526 2.37347 66.5655 2.33109 67.6784 2.33109C72.13 2.24632 76.6557 2.16156 81.1073 2.07679C83.8525 2.0344 86.5976 1.99202 89.4169 1.90725C90.5298 1.90725 91.5685 1.86487 92.6814 1.86487C96.9846 1.82249 101.362 1.7801 105.665 1.73772C109.968 1.69534 114.197 1.65295 118.501 1.61057C119.613 1.61057 120.726 1.61057 121.913 1.61057C124.733 1.61057 127.478 1.61057 130.297 1.61057C134.675 1.61057 138.978 1.61057 143.355 1.56819C144.765 1.56819 146.175 1.56819 147.584 1.56819C150.552 1.56819 153.52 1.56819 156.487 1.56819C156.71 1.56819 157.007 1.56819 157.229 1.56819C150.552 1.61057 143.8 1.65295 137.123 1.73772C134.304 1.7801 131.559 1.7801 128.739 1.82249C127.552 1.82249 126.291 1.82249 125.104 1.86487C121.023 1.90725 117.017 1.99202 112.936 2.0344C108.262 2.11917 103.588 2.16156 98.9136 2.24632C98.0975 2.24632 97.3556 2.28871 96.5395 2.28871C94.0169 2.37347 91.5685 2.41586 89.046 2.50062C84.0008 2.62777 78.9557 2.75492 73.9106 2.88207C73.1687 2.88207 72.4267 2.92446 71.6848 2.96684C69.2364 3.05161 66.7139 3.17876 64.2655 3.26352C59.8139 3.43306 55.4365 3.60259 50.985 3.77213C49.7979 3.81451 48.5366 3.89928 47.3495 3.94166C44.5302 4.06881 41.7108 4.19596 38.8915 4.36549C35.3302 4.53503 31.6948 4.70456 28.1335 4.8741C23.1626 5.1284 18.1175 5.3827 13.1465 5.637C11.9595 5.67938 10.7724 5.76415 9.51108 5.80653C7.35949 5.93368 5.20789 6.06083 3.05629 6.18798C2.83371 6.18798 2.61113 6.27275 2.61113 6.44228C2.61113 6.56943 2.83371 6.69658 3.05629 6.69658C3.87242 6.69658 4.61435 6.73897 5.43047 6.73897C5.28208 6.95088 5.20789 7.07803 5.20789 7.20518C5.20789 7.6714 5.87563 8.09524 6.76594 8.09524C12.924 7.88332 19.0078 7.62902 25.1658 7.45949C30.5077 7.33233 35.8496 7.1628 41.1915 7.03565C47.0527 6.86612 52.9882 6.69658 58.8494 6.56943C60.7043 6.52705 62.5591 6.48467 64.4139 6.3999C64.9333 6.3999 65.4526 6.35752 66.0461 6.35752C75.5428 6.23037 85.0396 6.06083 94.5363 5.93368C99.5814 5.84891 104.701 5.76415 109.746 5.72176C111.601 5.67938 113.381 5.67938 115.236 5.637C124.955 5.55223 134.675 5.46746 144.394 5.3827C148.549 5.34031 152.704 5.29793 156.858 5.25555C160.42 5.21316 163.981 5.21316 167.542 5.1284C170.51 5.08601 173.403 5.00125 176.371 4.95886C177.855 4.91648 179.339 4.91648 180.749 4.8741C184.087 4.74694 187.426 4.61979 190.765 4.49264C190.542 4.66218 190.542 4.91648 190.616 5.08601C190.69 5.29793 190.913 5.46746 191.284 5.55223C191.581 5.637 192.026 5.72176 192.323 5.637C193.065 5.46746 193.806 5.29793 194.474 5.1284C194.474 5.1284 194.474 5.1284 194.4 5.1284C194.474 5.1284 194.474 5.08601 194.548 5.08601C194.623 5.08601 194.697 5.04363 194.697 5.04363H194.623C194.994 4.95886 195.365 4.8741 195.81 4.74694C196.181 4.66218 196.626 4.53503 196.997 4.45026C197.442 4.32311 197.813 4.19596 198.258 4.06881C198.703 3.94166 199 3.60259 199 3.30591C199 3.13637 198.926 3.00922 198.777 2.83969C198.629 2.67016 198.258 2.45824 197.887 2.41586C197.516 2.37347 197.145 2.33109 196.774 2.33109C196.7 2.33109 196.626 2.33109 196.552 2.33109C196.329 2.33109 196.032 2.33109 195.81 2.37347C195.216 2.41586 194.697 2.45824 194.103 2.45824C193.658 2.45824 193.213 2.50062 192.694 2.50062C191.432 2.54301 190.245 2.58539 188.984 2.67016C188.687 2.67016 188.316 2.71254 188.019 2.71254C188.168 2.62777 188.242 2.54301 188.242 2.45824C188.316 2.37347 188.316 2.28871 188.316 2.20394C188.316 2.16156 188.316 2.07679 188.39 2.0344C188.39 1.94964 188.39 1.86487 188.316 1.82249C188.316 1.82249 188.39 1.82249 188.39 1.7801C188.613 1.69534 188.836 1.61057 188.984 1.44104C189.132 1.31389 189.207 1.14435 189.207 0.974819C189.207 0.805285 189.132 0.678135 188.984 0.508601C188.91 0.466218 188.836 0.381451 188.761 0.339068C188.539 0.211917 188.316 0.169534 188.094 0.12715C187.648 0.0423834 187.129 0 186.61 0C186.165 0 185.794 0 185.348 0C184.755 0 184.161 0 183.568 0C182.752 0 181.861 0 181.045 0C178.819 0 176.594 0 174.368 0C172.291 0 170.139 0 168.062 0C166.132 0 164.278 0 162.349 0C154.707 0 147.139 0.0423834 139.497 0.0847669C133.784 0.12715 128.071 0.169534 122.359 0.169534C119.836 0.169534 117.239 0.211917 114.717 0.254301C109.004 0.339068 103.291 0.381451 97.5782 0.466218C95.9459 0.466218 94.3137 0.508601 92.6814 0.508601C91.7169 0.508601 90.8266 0.550985 89.8621 0.550985C84.2234 0.678135 78.5848 0.805285 72.9461 0.932436C71.2397 0.974819 69.5332 1.0172 67.7526 1.05959C66.7881 1.05959 65.8236 1.10197 64.8591 1.14435C59.2204 1.31389 53.6559 1.48342 48.0172 1.65295C45.1237 1.73772 42.2302 1.82249 39.3367 1.94964C34.3657 2.11917 29.3948 2.28871 24.4981 2.50062C20.1949 2.67016 15.8917 2.79731 11.5885 2.92446C10.9208 2.96684 10.253 2.96684 9.51108 3.00922C8.39819 3.05161 7.28529 3.05161 6.1724 3.09399C5.20789 3.26352 4.16919 3.26352 3.20468 3.26352C3.13049 3.09399 2.83371 2.96684 2.61113 3.00922C1.9434 3.00922 1.34985 3.05161 0.682117 3.09399C0.385345 3.13637 0.0885727 3.22114 0.0143797 3.39068C-0.0598133 3.60259 0.162766 3.81451 0.459538 3.85689C0.75631 3.89928 1.05308 3.94166 1.34985 3.98404C1.64663 4.02643 1.8692 4.02643 2.16598 4.02643C2.90791 4.06881 3.57564 4.06881 4.31757 4.06881ZM177.929 2.71254C178.82 2.71254 179.784 2.71254 180.674 2.71254C180.749 2.83969 180.897 2.92446 181.045 3.00922C180.674 3.00922 180.303 3.05161 180.007 3.05161C179.339 3.05161 178.671 3.09399 178.003 3.09399C175.036 3.13637 172.142 3.22114 169.174 3.26352C167.839 3.30591 166.503 3.34829 165.168 3.34829C163.091 3.34829 160.939 3.39068 158.862 3.39068C154.039 3.43306 149.291 3.47544 144.468 3.51783C135.12 3.60259 125.846 3.68736 116.497 3.77213C109.82 3.81451 103.143 3.94166 96.4653 4.06881C86.4492 4.23834 76.359 4.36549 66.3429 4.53503C64.3397 4.57741 62.3365 4.61979 60.3333 4.70456C54.6204 4.87409 48.9076 5.00125 43.1947 5.17078C37.6302 5.34031 31.9916 5.46746 26.4271 5.637C25.9077 5.637 25.3884 5.67938 24.869 5.67938C26.3529 5.59461 27.9109 5.55223 29.3948 5.46746C34.6625 5.25555 39.9302 5.00125 45.1979 4.78933C47.0527 4.70456 48.9076 4.61979 50.6882 4.53503C51.6527 4.49264 52.6172 4.45026 53.5075 4.45026C59.072 4.28073 64.5623 4.06881 70.0526 3.89928C71.0913 3.85689 72.2042 3.81451 73.2429 3.77213C74.8009 3.72974 76.359 3.68736 77.8428 3.68736C83.4815 3.56021 89.1202 3.43306 94.7588 3.30591C96.0201 3.26352 97.2814 3.26352 98.4685 3.22114C98.7653 3.22114 99.1362 3.22114 99.433 3.22114C100.323 3.22114 101.214 3.22114 102.03 3.17876C107.668 3.09399 113.381 3.05161 119.02 2.96684C121.617 2.92446 124.213 2.88207 126.81 2.88207C135.194 2.83969 143.652 2.79731 152.036 2.75492C160.791 2.75492 169.397 2.71254 177.929 2.71254Z" fill="#CED8F7"/>
<path d="M15.4327 9.99999C15.657 9.99999 15.8388 9.8934 15.8388 9.7619C15.8388 9.6304 15.657 9.5238 15.4327 9.5238C15.2084 9.5238 15.0266 9.6304 15.0266 9.7619C15.0266 9.8934 15.2084 9.99999 15.4327 9.99999Z" fill="#CED8F7"/>
</svg>
