<?xml version="1.0" encoding="UTF-8" standalone="no"?><svg width="1120" height="30" viewBox="0 0 1120 30" fill="none" xmlns="http://www.w3.org/2000/svg">
<line x1="62" y1="4.37896e-08" x2="62" y2="17.1371" stroke="#CED8F7" stroke-width="2"/>
<line x1="91.9069" y1="6.10789e-05" x2="91.9069" y2="17.1372" stroke="#CED8F7" stroke-width="2"/>
<line x1="82.0726" y1="6.10789e-05" x2="82.0726" y2="17.1372" stroke="#CED8F7" stroke-width="2"/>
<line x1="72" y1="4.37896e-08" x2="72" y2="17.1371" stroke="#CED8F7" stroke-width="2"/>
<line x1="1" y1="6.10789e-05" x2="0.999999" y2="30.0001" stroke="#CED8F7" stroke-width="2"/>
<line x1="11" y1="4.37896e-08" x2="11" y2="17.1371" stroke="#CED8F7" stroke-width="2"/>
<line x1="40.9069" y1="6.10789e-05" x2="40.9069" y2="17.1372" stroke="#CED8F7" stroke-width="2"/>
<line x1="31.0726" y1="6.10789e-05" x2="31.0726" y2="17.1372" stroke="#CED8F7" stroke-width="2"/>
<line x1="21" y1="4.37896e-08" x2="21" y2="17.1371" stroke="#CED8F7" stroke-width="2"/>
<line x1="51.741" y1="6.10789e-05" x2="51.741" y2="30.0001" stroke="#CED8F7" stroke-width="2"/>
<line x1="164" y1="3.05614e-05" x2="164" y2="17.1372" stroke="#CED8F7" stroke-width="2"/>
<line x1="193.907" y1="9.15965e-05" x2="193.907" y2="17.1372" stroke="#CED8F7" stroke-width="2"/>
<line x1="184.073" y1="9.15965e-05" x2="184.073" y2="17.1372" stroke="#CED8F7" stroke-width="2"/>
<line x1="174" y1="3.05614e-05" x2="174" y2="17.1372" stroke="#CED8F7" stroke-width="2"/>
<line x1="103" y1="9.15964e-05" x2="103" y2="30.0001" stroke="#CED8F7" stroke-width="2"/>
<line x1="113" y1="3.05614e-05" x2="113" y2="17.1372" stroke="#CED8F7" stroke-width="2"/>
<line x1="142.907" y1="9.15965e-05" x2="142.907" y2="17.1372" stroke="#CED8F7" stroke-width="2"/>
<line x1="133.073" y1="9.15965e-05" x2="133.073" y2="17.1372" stroke="#CED8F7" stroke-width="2"/>
<line x1="123" y1="3.05614e-05" x2="123" y2="17.1372" stroke="#CED8F7" stroke-width="2"/>
<line x1="153.741" y1="9.15965e-05" x2="153.741" y2="30.0001" stroke="#CED8F7" stroke-width="2"/>
<line x1="266" y1="3.05614e-05" x2="266" y2="17.1372" stroke="#CED8F7" stroke-width="2"/>
<line x1="295.907" y1="9.15965e-05" x2="295.907" y2="17.1372" stroke="#CED8F7" stroke-width="2"/>
<line x1="286.073" y1="9.15965e-05" x2="286.073" y2="17.1372" stroke="#CED8F7" stroke-width="2"/>
<line x1="276" y1="3.05614e-05" x2="276" y2="17.1372" stroke="#CED8F7" stroke-width="2"/>
<line x1="205" y1="9.15964e-05" x2="205" y2="30.0001" stroke="#CED8F7" stroke-width="2"/>
<line x1="215" y1="3.05614e-05" x2="215" y2="17.1372" stroke="#CED8F7" stroke-width="2"/>
<line x1="244.907" y1="9.15965e-05" x2="244.907" y2="17.1372" stroke="#CED8F7" stroke-width="2"/>
<line x1="235.073" y1="9.15965e-05" x2="235.073" y2="17.1372" stroke="#CED8F7" stroke-width="2"/>
<line x1="225" y1="3.05614e-05" x2="225" y2="17.1372" stroke="#CED8F7" stroke-width="2"/>
<line x1="255.741" y1="9.15965e-05" x2="255.741" y2="30.0001" stroke="#CED8F7" stroke-width="2"/>
<line x1="368" y1="6.10789e-05" x2="368" y2="17.1372" stroke="#CED8F7" stroke-width="2"/>
<line x1="397.907" y1="0.000122114" x2="397.907" y2="17.1373" stroke="#CED8F7" stroke-width="2"/>
<line x1="388.073" y1="0.000122114" x2="388.073" y2="17.1373" stroke="#CED8F7" stroke-width="2"/>
<line x1="378" y1="6.10789e-05" x2="378" y2="17.1372" stroke="#CED8F7" stroke-width="2"/>
<line x1="307" y1="0.000122114" x2="307" y2="30.0001" stroke="#CED8F7" stroke-width="2"/>
<line x1="317" y1="6.10789e-05" x2="317" y2="17.1372" stroke="#CED8F7" stroke-width="2"/>
<line x1="346.907" y1="0.000122114" x2="346.907" y2="17.1373" stroke="#CED8F7" stroke-width="2"/>
<line x1="337.073" y1="0.000122114" x2="337.073" y2="17.1373" stroke="#CED8F7" stroke-width="2"/>
<line x1="327" y1="6.10789e-05" x2="327" y2="17.1372" stroke="#CED8F7" stroke-width="2"/>
<line x1="357.741" y1="0.000122114" x2="357.741" y2="30.0001" stroke="#CED8F7" stroke-width="2"/>
<line x1="470" y1="3.05614e-05" x2="470" y2="17.1372" stroke="#CED8F7" stroke-width="2"/>
<line x1="499.907" y1="9.15965e-05" x2="499.907" y2="17.1372" stroke="#CED8F7" stroke-width="2"/>
<line x1="490.073" y1="9.15965e-05" x2="490.073" y2="17.1372" stroke="#CED8F7" stroke-width="2"/>
<line x1="480" y1="3.05614e-05" x2="480" y2="17.1372" stroke="#CED8F7" stroke-width="2"/>
<line x1="409" y1="9.15964e-05" x2="409" y2="30.0001" stroke="#CED8F7" stroke-width="2"/>
<line x1="419" y1="3.05614e-05" x2="419" y2="17.1372" stroke="#CED8F7" stroke-width="2"/>
<line x1="448.907" y1="9.15965e-05" x2="448.907" y2="17.1372" stroke="#CED8F7" stroke-width="2"/>
<line x1="439.073" y1="9.15965e-05" x2="439.073" y2="17.1372" stroke="#CED8F7" stroke-width="2"/>
<line x1="429" y1="3.05614e-05" x2="429" y2="17.1372" stroke="#CED8F7" stroke-width="2"/>
<line x1="459.741" y1="9.15965e-05" x2="459.741" y2="30.0001" stroke="#CED8F7" stroke-width="2"/>
<line x1="572" y1="6.10789e-05" x2="572" y2="17.1372" stroke="#CED8F7" stroke-width="2"/>
<line x1="601.907" y1="0.000122114" x2="601.907" y2="17.1373" stroke="#CED8F7" stroke-width="2"/>
<line x1="592.073" y1="0.000122114" x2="592.073" y2="17.1373" stroke="#CED8F7" stroke-width="2"/>
<line x1="582" y1="6.10789e-05" x2="582" y2="17.1372" stroke="#CED8F7" stroke-width="2"/>
<line x1="511" y1="0.000122114" x2="511" y2="30.0001" stroke="#CED8F7" stroke-width="2"/>
<line x1="521" y1="6.10789e-05" x2="521" y2="17.1372" stroke="#CED8F7" stroke-width="2"/>
<line x1="550.907" y1="0.000122114" x2="550.907" y2="17.1373" stroke="#CED8F7" stroke-width="2"/>
<line x1="541.073" y1="0.000122114" x2="541.073" y2="17.1373" stroke="#CED8F7" stroke-width="2"/>
<line x1="531" y1="6.10789e-05" x2="531" y2="17.1372" stroke="#CED8F7" stroke-width="2"/>
<line x1="561.741" y1="0.000122114" x2="561.741" y2="30.0001" stroke="#CED8F7" stroke-width="2"/>
<line x1="674" y1="6.10789e-05" x2="674" y2="17.1372" stroke="#CED8F7" stroke-width="2"/>
<line x1="703.907" y1="0.000122114" x2="703.907" y2="17.1373" stroke="#CED8F7" stroke-width="2"/>
<line x1="694.073" y1="0.000122114" x2="694.073" y2="17.1373" stroke="#CED8F7" stroke-width="2"/>
<line x1="684" y1="6.10789e-05" x2="684" y2="17.1372" stroke="#CED8F7" stroke-width="2"/>
<line x1="613" y1="0.000122114" x2="613" y2="30.0001" stroke="#CED8F7" stroke-width="2"/>
<line x1="623" y1="6.10789e-05" x2="623" y2="17.1372" stroke="#CED8F7" stroke-width="2"/>
<line x1="652.907" y1="0.000122114" x2="652.907" y2="17.1373" stroke="#CED8F7" stroke-width="2"/>
<line x1="643.073" y1="0.000122114" x2="643.073" y2="17.1373" stroke="#CED8F7" stroke-width="2"/>
<line x1="633" y1="6.10789e-05" x2="633" y2="17.1372" stroke="#CED8F7" stroke-width="2"/>
<line x1="663.741" y1="0.000122114" x2="663.741" y2="30.0001" stroke="#CED8F7" stroke-width="2"/>
<line x1="776" y1="9.15965e-05" x2="776" y2="17.1372" stroke="#CED8F7" stroke-width="2"/>
<line x1="805.907" y1="0.000152632" x2="805.907" y2="17.1373" stroke="#CED8F7" stroke-width="2"/>
<line x1="796.073" y1="0.000152632" x2="796.073" y2="17.1373" stroke="#CED8F7" stroke-width="2"/>
<line x1="786" y1="9.15965e-05" x2="786" y2="17.1372" stroke="#CED8F7" stroke-width="2"/>
<line x1="715" y1="0.000152632" x2="715" y2="30.0002" stroke="#CED8F7" stroke-width="2"/>
<line x1="725" y1="9.15965e-05" x2="725" y2="17.1372" stroke="#CED8F7" stroke-width="2"/>
<line x1="754.907" y1="0.000152632" x2="754.907" y2="17.1373" stroke="#CED8F7" stroke-width="2"/>
<line x1="745.073" y1="0.000152632" x2="745.073" y2="17.1373" stroke="#CED8F7" stroke-width="2"/>
<line x1="735" y1="9.15965e-05" x2="735" y2="17.1372" stroke="#CED8F7" stroke-width="2"/>
<line x1="765.741" y1="0.000152632" x2="765.741" y2="30.0002" stroke="#CED8F7" stroke-width="2"/>
<line x1="878" y1="3.05614e-05" x2="878" y2="17.1372" stroke="#CED8F7" stroke-width="2"/>
<line x1="907.907" y1="9.15965e-05" x2="907.907" y2="17.1372" stroke="#CED8F7" stroke-width="2"/>
<line x1="898.073" y1="9.15965e-05" x2="898.073" y2="17.1372" stroke="#CED8F7" stroke-width="2"/>
<line x1="888" y1="3.05614e-05" x2="888" y2="17.1372" stroke="#CED8F7" stroke-width="2"/>
<line x1="817" y1="9.15964e-05" x2="817" y2="30.0001" stroke="#CED8F7" stroke-width="2"/>
<line x1="827" y1="3.05614e-05" x2="827" y2="17.1372" stroke="#CED8F7" stroke-width="2"/>
<line x1="856.907" y1="9.15965e-05" x2="856.907" y2="17.1372" stroke="#CED8F7" stroke-width="2"/>
<line x1="847.073" y1="9.15965e-05" x2="847.073" y2="17.1372" stroke="#CED8F7" stroke-width="2"/>
<line x1="837" y1="3.05614e-05" x2="837" y2="17.1372" stroke="#CED8F7" stroke-width="2"/>
<line x1="867.741" y1="9.15965e-05" x2="867.741" y2="30.0001" stroke="#CED8F7" stroke-width="2"/>
<line x1="980" y1="6.10789e-05" x2="980" y2="17.1372" stroke="#CED8F7" stroke-width="2"/>
<line x1="1009.91" y1="0.000122114" x2="1009.91" y2="17.1373" stroke="#CED8F7" stroke-width="2"/>
<line x1="1000.07" y1="0.000122114" x2="1000.07" y2="17.1373" stroke="#CED8F7" stroke-width="2"/>
<line x1="990" y1="6.10789e-05" x2="990" y2="17.1372" stroke="#CED8F7" stroke-width="2"/>
<line x1="919" y1="0.000122114" x2="919" y2="30.0001" stroke="#CED8F7" stroke-width="2"/>
<line x1="929" y1="6.10789e-05" x2="929" y2="17.1372" stroke="#CED8F7" stroke-width="2"/>
<line x1="958.907" y1="0.000122114" x2="958.907" y2="17.1373" stroke="#CED8F7" stroke-width="2"/>
<line x1="949.073" y1="0.000122114" x2="949.073" y2="17.1373" stroke="#CED8F7" stroke-width="2"/>
<line x1="939" y1="6.10789e-05" x2="939" y2="17.1372" stroke="#CED8F7" stroke-width="2"/>
<line x1="969.741" y1="0.000122114" x2="969.741" y2="30.0001" stroke="#CED8F7" stroke-width="2"/>
<line x1="1082" y1="6.10789e-05" x2="1082" y2="17.1372" stroke="#CED8F7" stroke-width="2"/>
<line x1="1110.91" y1="6.10789e-05" x2="1110.91" y2="17.1372" stroke="#CED8F7" stroke-width="2"/>
<line x1="1102.07" y1="0.000122114" x2="1102.07" y2="17.1373" stroke="#CED8F7" stroke-width="2"/>
<line x1="1092" y1="6.10789e-05" x2="1092" y2="17.1372" stroke="#CED8F7" stroke-width="2"/>
<line x1="1021" y1="0.000122114" x2="1021" y2="30.0001" stroke="#CED8F7" stroke-width="2"/>
<line x1="1031" y1="6.10789e-05" x2="1031" y2="17.1372" stroke="#CED8F7" stroke-width="2"/>
<line x1="1060.91" y1="0.000122114" x2="1060.91" y2="17.1373" stroke="#CED8F7" stroke-width="2"/>
<line x1="1051.07" y1="0.000122114" x2="1051.07" y2="17.1373" stroke="#CED8F7" stroke-width="2"/>
<line x1="1041" y1="6.10789e-05" x2="1041" y2="17.1372" stroke="#CED8F7" stroke-width="2"/>
<line x1="1071.74" y1="0.000122114" x2="1071.74" y2="30.0001" stroke="#CED8F7" stroke-width="2"/>
<line x1="1119" y1="-6.09914e-05" x2="1119" y2="29.9999" stroke="#CED8F7" stroke-width="2"/>
</svg>
