<?xml version="1.0" encoding="UTF-8" standalone="no"?><svg width="653" height="430" viewBox="0 0 653 430" fill="none" xmlns="http://www.w3.org/2000/svg">
<path d="M356.198 77.6065V88H353V72.01H356.198L365.792 84.4822L375.386 72.01H378.584V88H375.386V77.6065L367.391 88H364.193L356.198 77.6065ZM381.794 72.01H384.992V78.406H400.982V72.01H404.18V88H381.794V84.802H400.982V81.604H381.794V72.01ZM426.548 73.609V72.01H429.746L437.741 84.0025L445.736 72.01H448.934V73.609L439.34 88H436.142L426.548 73.609ZM452.126 72.01H455.324V88H452.126V72.01ZM480.914 88H458.528V84.802H477.716V81.604H458.528V72.01H480.914V75.208H461.726V78.406H480.914V88ZM484.105 72.01H487.303V88H484.105V72.01ZM490.508 72.01H512.894V88H490.508V72.01ZM493.706 84.802H509.696V75.208H493.706V84.802ZM516.086 72.01H519.284L535.274 84.0025V72.01H538.472V88H535.274L519.284 76.0075V88H516.086V72.01Z" fill="#CED8F7"/>
<rect x="0.5" y="0.5" width="652" height="429" rx="9.5" stroke="#CED8F7"/>
<path d="M176.337 202.382V215.61C176.187 215.76 175.839 216.031 175.145 216.353C174.102 216.822 172.263 217.391 169.109 217.74C167.147 217.961 164.664 218.107 161.559 218.107C158.456 218.107 155.972 217.961 154.009 217.74C150.856 217.391 149.018 216.822 147.973 216.353C147.279 216.031 146.93 215.76 146.781 215.61V202.382C145.342 202.947 143.95 203.465 142.559 203.915V216.008C142.559 217.168 143.154 218.7 145.74 219.962C144.721 222.141 144.175 224.565 144.175 227.135C144.175 236.706 161.559 256.812 161.559 256.812C161.559 256.812 178.946 236.706 178.946 227.135C178.946 224.563 178.399 222.139 177.379 219.962C179.964 218.702 180.559 217.168 180.559 216.008V203.915C179.168 203.467 177.779 202.947 176.337 202.382ZM161.559 249.394C161.559 249.394 149.787 234.581 149.787 227.534C149.787 225.381 150.286 223.351 151.155 221.572C152.645 221.847 154.432 222.043 156.495 222.166C155.651 223.251 155.154 224.613 155.154 226.099C155.154 229.61 161.561 237.03 161.561 237.03C161.561 237.03 167.968 229.611 167.968 226.099C167.968 224.615 167.473 223.253 166.629 222.166C168.69 222.045 170.477 221.847 171.971 221.572C172.838 223.351 173.337 225.379 173.337 227.534C173.333 234.581 161.559 249.394 161.559 249.394Z" fill="#CED8F7"/>
<path d="M210.289 129.228C208.747 127.024 205.418 124.379 198.392 124.379C193.326 124.379 187.116 125.714 180.311 128.213C180.236 126.653 180.111 124.923 179.964 123.068C179.541 117.974 178.845 112.014 177.628 106.276C175.195 94.6519 163.422 84.5115 162.925 84.0671C162.131 83.3976 160.989 83.3976 160.193 84.0671C159.697 84.5095 147.923 94.6519 145.49 106.276C144.273 112.012 143.578 117.972 143.156 123.068C143.008 124.923 142.882 126.653 142.811 128.213C136.004 125.714 129.794 124.379 124.729 124.379C117.698 124.379 114.371 127.024 112.831 129.228C111.765 130.735 111.168 132.443 111.019 134.296C108.635 135.558 107.022 138.032 107.022 140.875C107.022 144.983 110.348 148.293 114.471 148.293C114.721 148.293 114.97 148.293 115.217 148.245C118.05 153.116 122.196 158.288 127.163 163.405C114.597 176.316 107.244 189.669 112.833 197.56C114.373 199.763 117.7 202.383 124.731 202.406C134.194 202.406 147.581 197.733 161.561 189.771C175.545 197.735 188.93 202.406 198.393 202.406C205.422 202.406 208.749 199.763 210.291 197.56C215.878 189.669 208.527 176.316 195.957 163.405C208.525 150.471 215.876 137.141 210.289 129.228ZM198.392 129.327C201.096 129.327 204.626 129.796 206.241 132.072C209.47 136.647 204.402 147.578 192.458 159.919C188.78 156.408 184.757 152.97 180.561 149.706V136.127C180.561 135.979 180.561 134.99 180.51 133.407C187.363 130.785 193.548 129.327 198.392 129.327ZM146.781 136.127C146.781 136.054 146.781 131.204 147.303 124.602C147.675 119.384 148.396 113.08 149.638 107.143C151.327 99.1055 158.505 91.4891 161.559 88.5457C164.616 91.4891 171.791 99.1055 173.48 107.143C174.724 113.08 175.443 119.384 175.818 124.602C176.339 131.206 176.339 136.054 176.339 136.127V137.018C174.747 137.982 170.875 139.292 161.561 139.292C152.223 139.292 148.373 137.982 146.785 136.995V136.127H146.781ZM146.781 139.417C149.266 140.481 153.709 141.372 161.557 141.372C169.407 141.372 173.853 140.481 176.335 139.417V145.425C174.743 146.391 170.872 147.703 161.557 147.703C152.22 147.703 148.369 146.391 146.781 145.402V139.417ZM119.734 146.118C121.075 144.782 121.919 142.928 121.919 140.873C121.919 137.362 119.46 134.421 116.158 133.653C116.307 133.057 116.556 132.539 116.879 132.07C118.469 129.794 122.02 129.325 124.729 129.325C129.545 129.325 135.732 130.783 142.585 133.405C142.561 134.988 142.561 135.977 142.561 136.125V149.704C138.365 152.966 134.341 156.404 130.664 159.917C125.894 154.998 122.219 150.273 119.734 146.118ZM124.727 197.458C122.02 197.458 118.467 196.962 116.877 194.715C113.648 190.138 118.714 179.207 130.637 166.843C136.077 172.035 142.285 177.079 148.694 181.583C151.327 183.438 153.986 185.192 156.642 186.827C144.347 193.478 132.723 197.458 124.727 197.458ZM151.551 177.551C144.87 172.851 139.033 168.055 134.14 163.403C136.7 160.956 139.505 158.482 142.559 156.01V164.296C143.925 165.481 145.342 166.643 146.781 167.807V147.824C149.067 148.79 152.989 149.629 159.672 149.754C159.672 149.754 159.672 149.754 159.695 149.754C160.292 149.779 160.912 149.779 161.557 149.779C162.202 149.779 162.823 149.779 163.422 149.754C163.445 149.754 163.445 149.754 163.445 149.754C170.128 149.63 174.052 148.79 176.337 147.824V165.31H176.459C177.355 165.31 178.198 165.408 179.044 165.583C179.541 165.161 180.062 164.74 180.559 164.298V156.012C183.613 158.484 186.395 160.956 188.953 163.38C186.37 165.852 183.513 168.376 180.408 170.875C179.264 170.133 177.925 169.736 176.459 169.736C172.336 169.736 169.011 173.051 169.011 177.154C169.011 177.824 169.11 178.49 169.285 179.109C166.727 180.865 164.117 182.497 161.559 184.034C158.232 182.052 154.853 179.879 151.551 177.551ZM206.241 194.715C204.649 196.962 201.098 197.458 198.392 197.458C190.393 197.458 178.745 193.48 166.476 186.827C168.364 185.665 170.226 184.453 172.089 183.164C173.306 184.057 174.819 184.575 176.459 184.575C180.584 184.575 183.909 181.262 183.909 177.156C183.909 176.316 183.762 175.475 183.488 174.734C186.641 172.185 189.672 169.54 192.478 166.843C204.402 179.209 209.47 190.138 206.241 194.715Z" fill="#CED8F7"/>
<path d="M77.8457 285.945V280.918C77.8457 278.152 78.8301 275.785 80.7988 273.816C82.7559 271.859 85.123 270.881 87.9004 270.881H107.992V275.891H87.9004C86.5176 275.891 85.334 276.383 84.3496 277.367C83.3652 278.352 82.873 279.535 82.873 280.918H107.992V285.945C107.992 288.723 107.014 291.09 105.057 293.047C103.088 295.016 100.721 296 97.9551 296H77.8457V290.973H97.9551C99.3379 290.973 100.521 290.48 101.506 289.496C102.479 288.512 102.965 287.328 102.965 285.945H77.8457ZM116.729 275.891V280.918H131.811C133.193 280.918 134.377 280.426 135.361 279.441C136.334 278.469 136.82 277.285 136.82 275.891H116.729ZM111.701 296V270.881H141.848V275.891C141.848 278.668 140.869 281.041 138.912 283.01C136.943 284.967 134.576 285.945 131.811 285.945H116.729V296H111.701ZM170.676 283.432V275.891H155.611C154.229 275.891 153.045 276.383 152.061 277.367C151.076 278.352 150.584 279.535 150.584 280.918V283.432H170.676ZM145.557 296V280.918C145.557 278.152 146.541 275.785 148.51 273.816C150.467 271.859 152.834 270.881 155.611 270.881H175.703V296H170.676V288.459H150.584V296H145.557ZM184.439 275.891V280.918H197.008C198.625 280.918 200.09 280.449 201.402 279.512C202.68 278.586 203.582 277.379 204.109 275.891H184.439ZM179.412 296V270.881H209.559V273.377C209.559 275.404 209.102 277.309 208.188 279.09C207.309 280.812 206.09 282.26 204.531 283.432C206.09 284.604 207.309 286.057 208.188 287.791C209.102 289.572 209.559 291.471 209.559 293.486V296H204.531V293.486C204.531 291.412 203.799 289.637 202.334 288.16C200.857 286.684 199.082 285.945 197.008 285.945H184.439V296H179.412ZM234.361 270.881H243.15L229.387 280.443L243.115 296H236.418L225.238 283.344L218.295 288.16V296H213.268V270.881H218.295V282.043L234.361 270.881Z" fill="#CED8F7"/>
<path d="M78.2046 305.997H112.218V311.98H98.2139V336H92.209V311.98H78.2046V305.997ZM116.627 305.997H152.636V311.98H122.632V317.985H152.636V323.99H122.632V329.995H152.636V336H116.627V305.997ZM157.066 305.997H193.074V314.983H187.069V311.98H163.071V329.995H187.069V326.993H193.074V336H157.066V305.997ZM227.508 305.997H233.513V336H227.508V323.99H203.509V336H197.504V305.997H203.509V317.985H227.508V305.997Z" fill="#CED8F7"/>
<path fill-rule="evenodd" clip-rule="evenodd" d="M35 381H10C4.47715 381 0 376.523 0 371V10C0 4.47715 4.47716 0 10 0H35V381Z" fill="#CED8F7"/>
<path fill-rule="evenodd" clip-rule="evenodd" d="M35 429H10C4.47715 429 0 424.523 0 419V10C0 4.47715 4.47716 0 10 0H35V429Z" fill="#CED8F7"/>
</svg>
